<svg width="72" height="72" viewBox="0 0 72 72" fill="none" xmlns="http://www.w3.org/2000/svg">
<rect x="0.5" y="0.5" width="71" height="71" rx="35.5" stroke="url(#paint0_linear_35_349)"/>
<rect x="0.5" y="0.5" width="71" height="71" rx="35.5" stroke="url(#paint1_linear_35_349)"/>
<rect x="10.5" y="10.5" width="51" height="51" rx="25.5" stroke="url(#paint2_linear_35_349)"/>
<path d="M29 33C29 29.7002 29 28.0503 30.0251 27.0251C31.0502 26 32.7002 26 36 26C39.2998 26 40.9497 26 41.9749 27.0251C43 28.0503 43 29.7002 43 33V39C43 42.2998 43 43.9497 41.9749 44.9749C40.9497 46 39.2998 46 36 46C32.7002 46 31.0502 46 30.0251 44.9749C29 43.9497 29 42.2998 29 39V33Z" stroke="url(#paint3_linear_35_349)" stroke-width="1.5" stroke-linecap="round"/>
<path d="M35 43H37" stroke="url(#paint4_linear_35_349)" stroke-width="1.5" stroke-linecap="round" stroke-linejoin="round"/>
<path d="M33 26L33.089 26.534C33.2819 27.6913 33.3783 28.2699 33.7752 28.622C34.1892 28.9893 34.7761 29 36 29C37.2239 29 37.8108 28.9893 38.2248 28.622C38.6217 28.2699 38.7181 27.6913 38.911 26.534L39 26" stroke="url(#paint5_linear_35_349)" stroke-width="1.5" stroke-linejoin="round"/>
<defs>
<linearGradient id="paint0_linear_35_349" x1="5.92683" y1="75.9512" x2="75.2927" y2="-4.82927" gradientUnits="userSpaceOnUse">
<stop stop-color="#E9D151"/>
<stop offset="0.323723" stop-color="#E9D151" stop-opacity="0"/>
</linearGradient>
<linearGradient id="paint1_linear_35_349" x1="71.7805" y1="-9.21951" x2="5.92683" y2="72" gradientUnits="userSpaceOnUse">
<stop stop-color="#BE913E"/>
<stop offset="0.576615" stop-color="#BE913E" stop-opacity="0"/>
</linearGradient>
<linearGradient id="paint2_linear_35_349" x1="10" y1="36" x2="62" y2="36" gradientUnits="userSpaceOnUse">
<stop stop-color="#C8A049"/>
<stop offset="0.55422" stop-color="#E9D151"/>
<stop offset="0.935" stop-color="#BE913E"/>
</linearGradient>
<linearGradient id="paint3_linear_35_349" x1="29" y1="36" x2="43" y2="36" gradientUnits="userSpaceOnUse">
<stop stop-color="#C8A049"/>
<stop offset="0.55422" stop-color="#E9D151"/>
<stop offset="0.935" stop-color="#BE913E"/>
</linearGradient>
<linearGradient id="paint4_linear_35_349" x1="35" y1="43.5" x2="37" y2="43.5" gradientUnits="userSpaceOnUse">
<stop stop-color="#C8A049"/>
<stop offset="0.55422" stop-color="#E9D151"/>
<stop offset="0.935" stop-color="#BE913E"/>
</linearGradient>
<linearGradient id="paint5_linear_35_349" x1="33" y1="27.5" x2="39" y2="27.5" gradientUnits="userSpaceOnUse">
<stop stop-color="#C8A049"/>
<stop offset="0.55422" stop-color="#E9D151"/>
<stop offset="0.935" stop-color="#BE913E"/>
</linearGradient>
</defs>
</svg>
