<svg width="25" height="24" viewBox="0 0 25 24" fill="none" xmlns="http://www.w3.org/2000/svg">
<path d="M9.625 17C9.625 17.55 9.175 18 8.625 18C8.075 18 7.625 17.55 7.625 17C7.625 16.45 8.075 16 8.625 16C9.175 16 9.625 16.45 9.625 17ZM12.625 16C12.075 16 11.625 16.45 11.625 17C11.625 17.55 12.075 18 12.625 18C13.175 18 13.625 17.55 13.625 17C13.625 16.45 13.175 16 12.625 16ZM16.625 16C16.075 16 15.625 16.45 15.625 17C15.625 17.55 16.075 18 16.625 18C17.175 18 17.625 17.55 17.625 17C17.625 16.45 17.175 16 16.625 16ZM19.625 12V14H5.625V12C5.625 8.47 8.235 5.57 11.625 5.08V3H13.625V5.08C17.015 5.57 19.625 8.47 19.625 12ZM17.625 12C17.625 9.24 15.385 7 12.625 7C9.865 7 7.625 9.24 7.625 12H17.625ZM8.625 19C8.075 19 7.625 19.45 7.625 20C7.625 20.55 8.075 21 8.625 21C9.175 21 9.625 20.55 9.625 20C9.625 19.45 9.175 19 8.625 19ZM12.625 19C12.075 19 11.625 19.45 11.625 20C11.625 20.55 12.075 21 12.625 21C13.175 21 13.625 20.55 13.625 20C13.625 19.45 13.175 19 12.625 19ZM16.625 19C16.075 19 15.625 19.45 15.625 20C15.625 20.55 16.075 21 16.625 21C17.175 21 17.625 20.55 17.625 20C17.625 19.45 17.175 19 16.625 19Z" fill="url(#paint0_linear_34_5719)"/>
<defs>
<linearGradient id="paint0_linear_34_5719" x1="5.625" y1="12" x2="19.625" y2="12" gradientUnits="userSpaceOnUse">
<stop stop-color="#C8A049"/>
<stop offset="0.55422" stop-color="#E9D151"/>
<stop offset="0.935" stop-color="#BE913E"/>
</linearGradient>
</defs>
</svg>
