<svg width="25" height="24" viewBox="0 0 25 24" fill="none" xmlns="http://www.w3.org/2000/svg">
<path d="M9.28095 16.4996H15.4684C15.5716 16.4996 15.6559 16.4152 15.6559 16.3121V14.3434C15.6559 14.2402 15.5716 14.1559 15.4684 14.1559H14.5309C14.4278 14.1559 14.3434 14.2402 14.3434 14.3434V15.1871H10.4059V14.3434C10.4059 14.2402 10.3216 14.1559 10.2184 14.1559H9.28095C9.17782 14.1559 9.09345 14.2402 9.09345 14.3434V16.3121C9.09345 16.4152 9.17782 16.4996 9.28095 16.4996ZM17.2497 13.6168C17.2497 13.8654 17.3485 14.1039 17.5243 14.2797C17.7001 14.4555 17.9386 14.5543 18.1872 14.5543C18.4358 14.5543 18.6743 14.4555 18.8501 14.2797C19.0259 14.1039 19.1247 13.8654 19.1247 13.6168C19.1247 13.3682 19.0259 13.1297 18.8501 12.9539C18.6743 12.7781 18.4358 12.6793 18.1872 12.6793C17.9386 12.6793 17.7001 12.7781 17.5243 12.9539C17.3485 13.1297 17.2497 13.3682 17.2497 13.6168ZM22.8513 9.68867L22.2958 8.71836C22.2708 8.67559 22.2299 8.64443 22.1821 8.63169C22.1342 8.61896 22.0833 8.62568 22.0403 8.65039L20.852 9.34414L19.0169 4.27695C18.92 3.9746 18.7295 3.71085 18.473 3.52381C18.2164 3.33676 17.907 3.23609 17.5895 3.23633H7.43407C6.62079 3.23633 5.89892 3.76133 5.64814 4.53711L3.8997 9.34649L2.70907 8.65274C2.66615 8.62803 2.61519 8.6213 2.56732 8.63404C2.51946 8.64677 2.47858 8.67793 2.45361 8.7207L1.89814 9.68867C1.84657 9.77774 1.87704 9.89024 1.96611 9.9418L3.38173 10.7668L3.04189 11.7043C3.01376 11.7793 2.9997 11.859 2.9997 11.9387V20.0996C2.9997 20.4676 3.27626 20.7652 3.61611 20.7652H5.20048C5.48876 20.7652 5.73954 20.5473 5.80048 20.2426L5.98095 19.359H18.7684L18.9489 20.2426C19.0122 20.5473 19.2606 20.7652 19.5489 20.7652H21.1333C21.4731 20.7652 21.7497 20.4676 21.7497 20.0996V11.9387C21.7497 11.859 21.7356 11.7793 21.7075 11.7043L21.3677 10.7668L22.7809 9.9418C22.8235 9.91723 22.8547 9.87695 22.8678 9.82961C22.881 9.78227 22.875 9.73166 22.8513 9.68867ZM20.0622 12.1168V17.6715H4.6872V12.1168L5.05282 11.109H19.6966L20.0622 12.1168ZM7.23486 5.11133L7.24657 5.08086L7.25595 5.05039C7.28173 4.97305 7.35204 4.92148 7.43407 4.92148H17.4559L19.2231 9.79649H5.53095L7.23486 5.11133ZM5.6247 13.6168C5.6247 13.8654 5.72347 14.1039 5.89929 14.2797C6.0751 14.4555 6.31356 14.5543 6.5622 14.5543C6.81084 14.5543 7.0493 14.4555 7.22511 14.2797C7.40093 14.1039 7.4997 13.8654 7.4997 13.6168C7.4997 13.3682 7.40093 13.1297 7.22511 12.9539C7.0493 12.7781 6.81084 12.6793 6.5622 12.6793C6.31356 12.6793 6.0751 12.7781 5.89929 12.9539C5.72347 13.1297 5.6247 13.3682 5.6247 13.6168Z" fill="url(#paint0_linear_34_5723)"/>
<defs>
<linearGradient id="paint0_linear_34_5723" x1="1.87305" y1="12.0008" x2="22.8747" y2="12.0008" gradientUnits="userSpaceOnUse">
<stop stop-color="#C8A049"/>
<stop offset="0.55422" stop-color="#E9D151"/>
<stop offset="0.935" stop-color="#BE913E"/>
</linearGradient>
</defs>
</svg>
