<svg width="25" height="24" viewBox="0 0 25 24" fill="none" xmlns="http://www.w3.org/2000/svg">
<mask id="mask0_41_309" style="mask-type:alpha" maskUnits="userSpaceOnUse" x="0" y="0" width="25" height="24">
<rect x="0.375" width="24" height="24" fill="#D9D9D9"/>
</mask>
<g mask="url(#mask0_41_309)">
<path d="M9.175 10.95L11.325 8.775L9.925 7.35L8.825 8.45L7.425 7.05L8.5 5.95L7.375 4.825L5.2 7L9.175 10.95ZM17.375 19.175L19.55 17L18.425 15.875L17.325 16.95L15.925 15.55L17 14.45L15.575 13.05L13.425 15.2L17.375 19.175ZM7.625 21H3.375V16.75L7.75 12.375L2.375 7L7.375 2L12.775 7.4L16.55 3.6C16.75 3.4 16.975 3.25 17.225 3.15C17.475 3.05 17.7333 3 18 3C18.2667 3 18.525 3.05 18.775 3.15C19.025 3.25 19.25 3.4 19.45 3.6L20.775 4.95C20.975 5.15 21.125 5.375 21.225 5.625C21.325 5.875 21.375 6.13333 21.375 6.4C21.375 6.66667 21.325 6.92083 21.225 7.1625C21.125 7.40417 20.975 7.625 20.775 7.825L17 11.625L22.375 17L17.375 22L12 16.625L7.625 21ZM5.375 19H6.775L16.575 9.225L15.15 7.8L5.375 17.6V19Z" fill="url(#paint0_linear_41_309)"/>
</g>
<defs>
<linearGradient id="paint0_linear_41_309" x1="2.375" y1="12" x2="22.375" y2="12" gradientUnits="userSpaceOnUse">
<stop stop-color="#C8A049"/>
<stop offset="0.55422" stop-color="#E9D151"/>
<stop offset="0.935" stop-color="#BE913E"/>
</linearGradient>
</defs>
</svg>
