<svg width="25" height="24" viewBox="0 0 25 24" fill="none" xmlns="http://www.w3.org/2000/svg">
<path d="M20.875 9.557V3H18.875V5H6.875V3H4.875V9.557C3.685 10.25 2.875 11.525 2.875 13V17C2.875 17.2652 2.98036 17.5196 3.16789 17.7071C3.35543 17.8946 3.60978 18 3.875 18H4.875V22H6.875V18H18.875V22H20.875V18H21.875C22.1402 18 22.3946 17.8946 22.5821 17.7071C22.7696 17.5196 22.875 17.2652 22.875 17V13C22.875 11.525 22.064 10.25 20.875 9.557ZM18.875 7V9H13.875V7H18.875ZM6.875 7H11.875V9H6.875V7ZM20.875 16H4.875V13C4.875 11.897 5.772 11 6.875 11H18.875C19.978 11 20.875 11.897 20.875 13V16Z" fill="url(#paint0_linear_34_5715)"/>
<defs>
<linearGradient id="paint0_linear_34_5715" x1="2.875" y1="12.5" x2="22.875" y2="12.5" gradientUnits="userSpaceOnUse">
<stop stop-color="#C8A049"/>
<stop offset="0.55422" stop-color="#E9D151"/>
<stop offset="0.935" stop-color="#BE913E"/>
</linearGradient>
</defs>
</svg>
