<svg width="25" height="24" viewBox="0 0 25 24" fill="none" xmlns="http://www.w3.org/2000/svg">
<path d="M21.129 7.975V6C21.129 3.794 19.335 2 17.129 2H7.129C4.923 2 3.129 3.794 3.129 6V7.998L3.053 8.002C2.8008 8.02021 2.56486 8.13328 2.39268 8.31845C2.22049 8.50362 2.12485 8.74714 2.125 9V11C2.125 11.2652 2.23036 11.5196 2.41789 11.7071C2.60543 11.8946 2.85978 12 3.125 12H3.129V18C3.129 18.735 3.532 19.372 4.125 19.72V21C4.125 21.2652 4.23036 21.5196 4.41789 21.7071C4.60543 21.8946 4.85978 22 5.125 22H6.125C6.39022 22 6.64457 21.8946 6.83211 21.7071C7.01964 21.5196 7.125 21.2652 7.125 21V20H17.125V21C17.125 21.2652 17.2304 21.5196 17.4179 21.7071C17.6054 21.8946 17.8598 22 18.125 22H19.125C19.3902 22 19.6446 21.8946 19.8321 21.7071C20.0196 21.5196 20.125 21.2652 20.125 21V19.724C20.429 19.5501 20.6819 19.2992 20.8581 18.9966C21.0344 18.6939 21.1278 18.3502 21.129 18V12C21.3942 12 21.6486 11.8946 21.8361 11.7071C22.0236 11.5196 22.129 11.2652 22.129 11V9.062C22.1405 8.90681 22.1159 8.75106 22.057 8.607C21.854 8.12 21.422 8.003 21.129 7.975ZM19.131 18H5.129V13H19.13L19.131 18ZM11.129 7V11H5.129V7H11.129ZM19.129 7V11H13.129V7H19.129ZM7.129 4H17.129C17.865 4 18.504 4.405 18.851 5H5.407C5.754 4.405 6.393 4 7.129 4Z" fill="url(#paint0_linear_41_348)"/>
<path d="M7.625 17C8.45343 17 9.125 16.3284 9.125 15.5C9.125 14.6716 8.45343 14 7.625 14C6.79657 14 6.125 14.6716 6.125 15.5C6.125 16.3284 6.79657 17 7.625 17Z" fill="url(#paint1_linear_41_348)"/>
<path d="M16.625 17C17.4534 17 18.125 16.3284 18.125 15.5C18.125 14.6716 17.4534 14 16.625 14C15.7966 14 15.125 14.6716 15.125 15.5C15.125 16.3284 15.7966 17 16.625 17Z" fill="url(#paint2_linear_41_348)"/>
<defs>
<linearGradient id="paint0_linear_41_348" x1="2.125" y1="12" x2="22.1318" y2="12" gradientUnits="userSpaceOnUse">
<stop stop-color="#C8A049"/>
<stop offset="0.55422" stop-color="#E9D151"/>
<stop offset="0.935" stop-color="#BE913E"/>
</linearGradient>
<linearGradient id="paint1_linear_41_348" x1="6.125" y1="15.5" x2="9.125" y2="15.5" gradientUnits="userSpaceOnUse">
<stop stop-color="#C8A049"/>
<stop offset="0.55422" stop-color="#E9D151"/>
<stop offset="0.935" stop-color="#BE913E"/>
</linearGradient>
<linearGradient id="paint2_linear_41_348" x1="15.125" y1="15.5" x2="18.125" y2="15.5" gradientUnits="userSpaceOnUse">
<stop stop-color="#C8A049"/>
<stop offset="0.55422" stop-color="#E9D151"/>
<stop offset="0.935" stop-color="#BE913E"/>
</linearGradient>
</defs>
</svg>
