<svg width="25" height="24" viewBox="0 0 25 24" fill="none" xmlns="http://www.w3.org/2000/svg">
<path d="M5.375 12C6.75571 12 7.875 10.8807 7.875 9.5C7.875 8.11929 6.75571 7 5.375 7C3.99429 7 2.875 8.11929 2.875 9.5C2.875 10.8807 3.99429 12 5.375 12Z" fill="url(#paint0_linear_41_336)"/>
<path d="M9.875 8C11.2557 8 12.375 6.88071 12.375 5.5C12.375 4.11929 11.2557 3 9.875 3C8.49429 3 7.375 4.11929 7.375 5.5C7.375 6.88071 8.49429 8 9.875 8Z" fill="url(#paint1_linear_41_336)"/>
<path d="M15.875 8C17.2557 8 18.375 6.88071 18.375 5.5C18.375 4.11929 17.2557 3 15.875 3C14.4943 3 13.375 4.11929 13.375 5.5C13.375 6.88071 14.4943 8 15.875 8Z" fill="url(#paint2_linear_41_336)"/>
<path d="M20.375 12C21.7557 12 22.875 10.8807 22.875 9.5C22.875 8.11929 21.7557 7 20.375 7C18.9943 7 17.875 8.11929 17.875 9.5C17.875 10.8807 18.9943 12 20.375 12Z" fill="url(#paint3_linear_41_336)"/>
<path d="M18.2156 14.86C17.3456 13.84 16.6156 12.97 15.7356 11.95C15.2756 11.41 14.6856 10.87 13.9856 10.63C13.8756 10.59 13.7656 10.56 13.6556 10.54C13.4056 10.5 13.1356 10.5 12.8756 10.5C12.6156 10.5 12.3456 10.5 12.0856 10.55C11.9756 10.57 11.8656 10.6 11.7556 10.64C11.0556 10.88 10.4756 11.42 10.0056 11.96C9.13563 12.98 8.40563 13.85 7.52563 14.87C6.21563 16.18 4.60563 17.63 4.90563 19.66C5.19563 20.68 5.92563 21.69 7.23563 21.98C7.96563 22.13 10.2956 21.54 12.7756 21.54H12.9556C15.4356 21.54 17.7656 22.12 18.4956 21.98C19.8056 21.69 20.5356 20.67 20.8256 19.66C21.1356 17.62 19.5256 16.17 18.2156 14.86Z" fill="url(#paint4_linear_41_336)"/>
<defs>
<linearGradient id="paint0_linear_41_336" x1="2.875" y1="9.5" x2="7.875" y2="9.5" gradientUnits="userSpaceOnUse">
<stop stop-color="#C8A049"/>
<stop offset="0.55422" stop-color="#E9D151"/>
<stop offset="0.935" stop-color="#BE913E"/>
</linearGradient>
<linearGradient id="paint1_linear_41_336" x1="7.375" y1="5.5" x2="12.375" y2="5.5" gradientUnits="userSpaceOnUse">
<stop stop-color="#C8A049"/>
<stop offset="0.55422" stop-color="#E9D151"/>
<stop offset="0.935" stop-color="#BE913E"/>
</linearGradient>
<linearGradient id="paint2_linear_41_336" x1="13.375" y1="5.5" x2="18.375" y2="5.5" gradientUnits="userSpaceOnUse">
<stop stop-color="#C8A049"/>
<stop offset="0.55422" stop-color="#E9D151"/>
<stop offset="0.935" stop-color="#BE913E"/>
</linearGradient>
<linearGradient id="paint3_linear_41_336" x1="17.875" y1="9.5" x2="22.875" y2="9.5" gradientUnits="userSpaceOnUse">
<stop stop-color="#C8A049"/>
<stop offset="0.55422" stop-color="#E9D151"/>
<stop offset="0.935" stop-color="#BE913E"/>
</linearGradient>
<linearGradient id="paint4_linear_41_336" x1="4.86914" y1="16.2522" x2="20.8644" y2="16.2522" gradientUnits="userSpaceOnUse">
<stop stop-color="#C8A049"/>
<stop offset="0.55422" stop-color="#E9D151"/>
<stop offset="0.935" stop-color="#BE913E"/>
</linearGradient>
</defs>
</svg>
