<svg width="25" height="24" viewBox="0 0 25 24" fill="none" xmlns="http://www.w3.org/2000/svg">
<mask id="mask0_41_374" style="mask-type:alpha" maskUnits="userSpaceOnUse" x="0" y="0" width="25" height="24">
<rect x="0.625" width="24" height="24" fill="#D9D9D9"/>
</mask>
<g mask="url(#mask0_41_374)">
<path d="M12.5508 22C11.1674 22 9.86745 21.7375 8.65078 21.2125C7.43411 20.6875 6.37578 19.975 5.47578 19.075C4.57578 18.175 3.86328 17.1167 3.33828 15.9C2.81328 14.6833 2.55078 13.3833 2.55078 12C2.55078 10.6167 2.81328 9.31667 3.33828 8.1C3.86328 6.88333 4.57578 5.825 5.47578 4.925C6.37578 4.025 7.43411 3.3125 8.65078 2.7875C9.86745 2.2625 11.1674 2 12.5508 2C13.9341 2 15.2341 2.2625 16.4508 2.7875C17.6674 3.3125 18.7258 4.025 19.6258 4.925C20.5258 5.825 21.2383 6.88333 21.7633 8.1C22.2883 9.31667 22.5508 10.6167 22.5508 12C22.5508 13.3833 22.2883 14.6833 21.7633 15.9C21.2383 17.1167 20.5258 18.175 19.6258 19.075C18.7258 19.975 17.6674 20.6875 16.4508 21.2125C15.2341 21.7375 13.9341 22 12.5508 22ZM14.8258 19.675C16.1258 19.2917 17.2549 18.6208 18.2133 17.6625C19.1716 16.7042 19.8424 15.575 20.2258 14.275L14.8258 19.675ZM4.90078 9.65L10.2008 4.35C8.91745 4.73333 7.80911 5.39167 6.87578 6.325C5.94245 7.25833 5.28411 8.36667 4.90078 9.65ZM4.80078 14.05L14.6008 4.275C14.4008 4.225 14.2008 4.18333 14.0008 4.15C13.8008 4.11667 13.5924 4.08333 13.3758 4.05L4.60078 12.825C4.63411 13.0417 4.66328 13.25 4.68828 13.45C4.71328 13.65 4.75078 13.85 4.80078 14.05ZM6.22578 16.9L17.4508 5.65C17.3174 5.55 17.1799 5.45 17.0383 5.35C16.8966 5.25 16.7508 5.15833 16.6008 5.075L5.62578 16.05C5.70911 16.2 5.80078 16.3458 5.90078 16.4875C6.00078 16.6292 6.10911 16.7667 6.22578 16.9ZM8.50078 18.925L19.4508 7.95C19.3674 7.8 19.2758 7.65417 19.1758 7.5125C19.0758 7.37083 18.9758 7.23333 18.8758 7.1L7.65078 18.35C7.78411 18.45 7.92161 18.55 8.06328 18.65C8.20495 18.75 8.35078 18.8417 8.50078 18.925ZM11.7258 19.95L20.5008 11.175C20.4674 10.9583 20.4341 10.75 20.4008 10.55C20.3674 10.35 20.3258 10.15 20.2758 9.95L10.5008 19.725C10.7008 19.775 10.9008 19.8167 11.1008 19.85C11.3008 19.8833 11.5091 19.9167 11.7258 19.95Z" fill="url(#paint0_linear_41_374)"/>
</g>
<defs>
<linearGradient id="paint0_linear_41_374" x1="2.55078" y1="12" x2="22.5508" y2="12" gradientUnits="userSpaceOnUse">
<stop stop-color="#C8A049"/>
<stop offset="0.55422" stop-color="#E9D151"/>
<stop offset="0.935" stop-color="#BE913E"/>
</linearGradient>
</defs>
</svg>
