<svg width="25" height="24" viewBox="0 0 25 24" fill="none" xmlns="http://www.w3.org/2000/svg">
<path d="M19.1248 2H9.12479C8.02179 2 7.12479 2.897 7.12479 4V9.586L2.41779 14.293C2.27798 14.4329 2.18277 14.611 2.1442 14.805C2.10564 14.9989 2.12544 15.2 2.20111 15.3827C2.27678 15.5654 2.40492 15.7215 2.56933 15.8314C2.73374 15.9413 2.92704 16 3.12479 16V21C3.12479 21.2652 3.23014 21.5196 3.41768 21.7071C3.60522 21.8946 3.85957 22 4.12479 22H20.1248C20.39 22 20.6444 21.8946 20.8319 21.7071C21.0194 21.5196 21.1248 21.2652 21.1248 21V4C21.1248 2.897 20.2278 2 19.1248 2ZM11.1248 20H5.12479V14.414L8.12479 11.414L11.1248 14.414V20ZM19.1248 20H13.1248V16C13.3228 16.0004 13.5164 15.942 13.6811 15.8322C13.8458 15.7224 13.9742 15.5662 14.05 15.3833C14.1257 15.2004 14.1454 14.9991 14.1066 14.805C14.0677 14.6109 13.9721 14.4327 13.8318 14.293L9.12479 9.586V4H19.1248V20Z" fill="url(#paint0_linear_34_5727)"/>
<path d="M11.125 6H13.125V8H11.125V6ZM15.125 6H17.125V8H15.125V6ZM15.125 10.031H17.125V12H15.125V10.031ZM15.125 14H17.125V16H15.125V14ZM7.125 15H9.125V17H7.125V15Z" fill="url(#paint1_linear_34_5727)"/>
<defs>
<linearGradient id="paint0_linear_34_5727" x1="2.125" y1="12" x2="21.1248" y2="12" gradientUnits="userSpaceOnUse">
<stop stop-color="#C8A049"/>
<stop offset="0.55422" stop-color="#E9D151"/>
<stop offset="0.935" stop-color="#BE913E"/>
</linearGradient>
<linearGradient id="paint1_linear_34_5727" x1="7.125" y1="11.5" x2="17.125" y2="11.5" gradientUnits="userSpaceOnUse">
<stop stop-color="#C8A049"/>
<stop offset="0.55422" stop-color="#E9D151"/>
<stop offset="0.935" stop-color="#BE913E"/>
</linearGradient>
</defs>
</svg>
